<svg version="1.1" id="Layer_1" xmlns="http://www.w3.org/2000/svg" x="0" y="0" viewBox="0 0 455 455" xml:space="preserve"><path fill="currentColor" d="M189.898 203.01c-16.88 0-24.661 13.375-24.661 26.347 0 13.929 8.677 26.514 24.767 26.514 13.481 0 24.565-10.53 24.565-26.655-.001-15.026-9.609-26.206-24.671-26.206zm-79.727-.448c-11.698 0-23.528 7.377-23.528 20.34h45.897c0-12.207-9.055-20.34-22.369-20.34zm135.961 41.032c0 6.859 5.076 12.796 17.011 12.796 21.719 0 25.425-14.851 25.425-20.858v-4.567c-25.249 0-42.436.07-42.436 12.629z" fill-rule="evenodd" clip-rule="evenodd"/><path fill="currentColor" d="M0 0v455h455V0H0zm336.187 290.624h-17.776l14.07-26.725-29.983-56.26c1.37 3.259 2.125 7.105 2.125 11.733v34.585c0 4.014.58 10.258.58 10.258h-14.781s-.378-5.05-.378-10.161c0 0-7.518 12.866-30.809 12.866-17.117 0-29.746-8.229-29.746-23.361 0-.861.035-1.713.14-2.538-4.426 15.571-17.74 25.698-35.718 25.698-21.095 0-28.85-12.146-28.85-12.146 0 4.628-.544 9.643-.544 9.643h-15.712s.343-7 .343-11.979v-18.733H86.265c0 13.244 10.047 22.685 24.046 22.685 17.152 0 20.683-12.05 20.683-12.05h16.467s-2.195 22.369-36.157 22.369c-28.85 0-41.304-14.201-41.304-36.702 0-28.482 18.487-37.879 40.724-37.879 29.711 0 38.177 19.594 38.423 32.697v-60.248h16.054v39.591s6.824-11.83 28.745-11.83c23.361 0 37.229 16.529 37.229 37.08 0 2.538-.211 5.015-.588 7.377 3.741-10.706 16.845-15.984 38.458-15.984h19.523v-3.469c0-9.634-8.51-14.684-19.523-14.684-16.915 0-17.767 10.705-17.767 10.705h-16.643c0-2.951 2.16-21.236 35.578-21.236 11.426 0 23.915 2.406 30.256 11.838l-4.804-8.958h18.733l26.866 53.792 26.795-53.792H385l-48.813 95.818z" fill-rule="evenodd" clip-rule="evenodd"/></svg>