<svg viewBox="0 0 1024 1024" xmlns="http://www.w3.org/2000/svg" xmlns:xlink="http://www.w3.org/1999/xlink"><style>:root&gt;svg{display:none}:root&gt;svg:target{display:block}</style><svg viewBox="0 0 55.751 55.751" id="down-arrow" xmlns="http://www.w3.org/2000/svg"><path fill="currentColor" d="M31.836 43.006c.282-.281.518-.59.725-.912L54.17 20.485a5.403 5.403 0 000-7.638 5.403 5.403 0 00-7.638 0l-18.608 18.61L9.217 12.753A5.4 5.4 0 000 16.571a5.363 5.363 0 001.582 3.816l21.703 21.706c.207.323.445.631.729.913a5.367 5.367 0 003.91 1.572 5.37 5.37 0 003.912-1.572z"/></svg><svg viewBox="0 0 455 455" id="ebay-cub" xmlns="http://www.w3.org/2000/svg"><path fill="currentColor" d="M189.898 203.01c-16.88 0-24.661 13.375-24.661 26.347 0 13.929 8.677 26.514 24.767 26.514 13.481 0 24.565-10.53 24.565-26.655-.001-15.026-9.609-26.206-24.671-26.206zm-79.727-.448c-11.698 0-23.528 7.377-23.528 20.34h45.897c0-12.207-9.055-20.34-22.369-20.34zm135.961 41.032c0 6.859 5.076 12.796 17.011 12.796 21.719 0 25.425-14.851 25.425-20.858v-4.567c-25.249 0-42.436.07-42.436 12.629z" fill-rule="evenodd" clip-rule="evenodd"/><path fill="currentColor" d="M0 0v455h455V0H0zm336.187 290.624h-17.776l14.07-26.725-29.983-56.26c1.37 3.259 2.125 7.105 2.125 11.733v34.585c0 4.014.58 10.258.58 10.258h-14.781s-.378-5.05-.378-10.161c0 0-7.518 12.866-30.809 12.866-17.117 0-29.746-8.229-29.746-23.361 0-.861.035-1.713.14-2.538-4.426 15.571-17.74 25.698-35.718 25.698-21.095 0-28.85-12.146-28.85-12.146 0 4.628-.544 9.643-.544 9.643h-15.712s.343-7 .343-11.979v-18.733H86.265c0 13.244 10.047 22.685 24.046 22.685 17.152 0 20.683-12.05 20.683-12.05h16.467s-2.195 22.369-36.157 22.369c-28.85 0-41.304-14.201-41.304-36.702 0-28.482 18.487-37.879 40.724-37.879 29.711 0 38.177 19.594 38.423 32.697v-60.248h16.054v39.591s6.824-11.83 28.745-11.83c23.361 0 37.229 16.529 37.229 37.08 0 2.538-.211 5.015-.588 7.377 3.741-10.706 16.845-15.984 38.458-15.984h19.523v-3.469c0-9.634-8.51-14.684-19.523-14.684-16.915 0-17.767 10.705-17.767 10.705h-16.643c0-2.951 2.16-21.236 35.578-21.236 11.426 0 23.915 2.406 30.256 11.838l-4.804-8.958h18.733l26.866 53.792 26.795-53.792H385l-48.813 95.818z" fill-rule="evenodd" clip-rule="evenodd"/></svg><svg viewBox="0 0 1024 1024" id="etsy-circle" xmlns="http://www.w3.org/2000/svg"><circle fill="currentColor" cx="512" cy="512" r="512"/><path d="M272.42 487.83v-81.77c0-3 .3-4.85 5.45-4.85h69.35c12.12 0 18.78 10.3 23.63 29.68l3.94 15.45h11.81c2.12-43.91 3.93-63 3.93-63s-29.68 3.33-47.24 3.33h-88.74l-47.55-1.5v12.72l16.05 3c11.21 2.12 13.93 4.54 14.84 14.84 0 0 .91 30.28.91 80.26s-.91 80-.91 80c0 9.08-3.64 12.41-14.84 14.54l-16.05 3v12.71l47.55-1.51h79.35c17.87 0 59.36 1.51 59.36 1.51.91-10.9 7-60.27 7.88-65.71h-11.21l-11.81 27c-9.39 21.19-23 22.71-38.16 22.71h-45.13c-15.14 0-22.41-6.06-22.41-19.08v-69.09s33 0 44.52.91c8.48.61 13.63 3 16.36 14.84l3.64 15.75h13l-.94-39.68 1.82-40h-13l-4.24 17.56c-2.73 11.51-4.54 13.63-16.36 14.84-13.32 1.52-44.82 1.21-44.82 1.21v.3zM452 414.55c-4.24 18.78-8.48 33.31-23.32 43-9.08 6.05-18.17 8.17-21.8 8.48v11.51h27v93c0 26 17.27 38.77 40.28 38.77 17.87 0 36.34-7.57 42.7-23.32l-6.36-8.18c-3 5.15-12.71 12.72-24.83 12.72-13.32 0-20.59-9.09-20.59-32.1v-82.1l44.83 3.33 2.42-20.6-47.33 1.82v-46l-13-.3zm95.7 143l-11.51.3c.6 6.66.91 15.14.91 23 0 8.18-.3 15.75-.91 19.38 0 0 23 8.47 46.34 8.47 31.5 0 56.63-15.14 56.63-44.82 0-50.87-76.32-43.3-76.32-77.53 0-14.23 12.72-19.68 26.65-19.68 10.9 0 20 3.94 21.8 9.7l7.57 22.71 11.21-.6c.91-12.12 1.51-26 3.33-37.25-9.69-4.24-30-6.67-42.7-6.67-29.69 0-53.61 13-53.61 42.1 0 50.57 74.5 40.28 74.5 77.53 0 13.32-8.18 22.71-26.65 22.71-17 0-25.44-8.78-28.76-17.57l-8.49-21.8zm182.53 35c-17.53 49-39 61.66-58.34 61.66-8.17 0-12.09-3.63-13.31-9.36l-4.53-23.59-12.7.6c-2.42 13.91-4.84 29.33-8.16 42 7.56 5.74 20.25 8.77 30.23 8.77 20.86 0 52.6-2.73 81.62-71.65l48.67-114.87c3.93-9.37 5.44-10.28 16.93-14.82l6.36-2.39v-10.58l-28.72 1.51-30.83-1.51v10.58l7.86 2.41c7.86 2.42 11.49 5.44 11.49 10.89 0 2.72-.91 5.44-2.43 9.67-4.53 11.5-32.65 79.81-40.2 94.32l7.55-2.73c-13.3-32.95-33.55-88-36.57-97.33a15.06 15.06 0 01-.91-4.85c0-4.83 3.32-8.77 10.58-10.28l10-2.11v-10.57l-41.42 1.51-32.95-1.51v10.58l5.44 1.81c7.56 2.42 9.37 4.54 13.91 15.12 25.08 57.44 36.88 88.87 52.89 130l7.57-23.28z" fill="#fff"/></svg><svg viewBox="0 0 310 310" id="facebook" xmlns="http://www.w3.org/2000/svg"><path fill="currentColor" d="M81.703 165.106h33.981V305a5 5 0 005 5H178.3a5 5 0 005-5V165.765h39.064a5 5 0 004.967-4.429l5.933-51.502a5 5 0 00-4.966-5.572h-44.996V71.978c0-9.732 5.24-14.667 15.576-14.667h29.42a5 5 0 005-5V5.037a5 5 0 00-5-5h-40.545A39.746 39.746 0 00185.896 0c-7.035 0-31.488 1.381-50.804 19.151-21.402 19.692-18.427 43.27-17.716 47.358v37.752H81.703a5 5 0 00-5 5v50.844a5 5 0 005 5.001z"/></svg><svg viewBox="0 0 24 24" id="facebook-circle" xmlns="http://www.w3.org/2000/svg"><path fill="currentColor" d="M24 12.073c0-6.627-5.373-12-12-12s-12 5.373-12 12c0 5.99 4.388 10.954 10.125 11.854v-8.385H7.078v-3.47h3.047V9.43c0-3.007 1.792-4.669 4.533-4.669 1.312 0 2.686.235 2.686.235v2.953H15.83c-1.491 0-1.956.925-1.956 1.874v2.25h3.328l-.532 3.47h-2.796v8.385C19.612 23.027 24 18.062 24 12.073z"/></svg><svg viewBox="0 0 239.04 239.04" id="instagram" xmlns="http://www.w3.org/2000/svg"><path d="M167.809 36.555c-22.276-.183-44.597-1.054-66.919-.504-25.851.642-46.018 2.2-61.281 22.872-3.988 9.854-6.004 21.359-6.967 33.368-.183 3.163-.367 6.417-.596 9.763-.825 20.396.55 41.435.092 58.118 2.154 10.955 6.371 20.809 14.255 28.326 26.126 24.888 79.294 17.142 114.128 15.767 16.73-6.096 30.663-11.138 38.134-30.251 5.913-15.034 4.95-34.193 5.363-50.326.779-33.186 2.246-78.974-36.209-87.133z" fill="#fff"/><path d="M157.588 48.38c44.505 5.729 31.443 70.219 30.205 101.478-.688 17.188-3.758 30.48-21.496 36.438-23.33 7.838-57.706 5.225-81.494 1.742-15.905-2.292-28.372-7.059-32.772-23.559-6.967-26.08-4.996-61.373-1.971-87.957.092-.504.229-.871.458-1.192.412-39.783 83.923-29.929 107.07-26.95z"/><path d="M176.059 72.627c.092-10.955-13.567-14.438-20.901-7.7-1.971 1.833-2.888 4.629-3.025 7.654.733 3.896 3.071 7.746 6.096 9.946 7.105 4.996 17.738-1.65 17.83-9.9zM155.754 93.94c-15.675-23.742-51.06-26.08-70.081-5.042-12.971 14.346-13.888 38.226-4.125 55.185.55.183 1.054.504 1.513 1.054 15.859 17.692 43.176 24.109 62.794 8.067 17.508-14.346 22.641-39.968 9.899-59.264z" fill="#fff"/><path d="M93.282 126.483c5.546 15.584 25.255 27.959 40.976 18.334 31.763-19.434-5.546-72.235-31.718-48.814-9.258 5.454-12.879 20.258-9.258 30.48z"/></svg><svg data-name="Instagram w/circle" viewBox="0 0 19.2 19.2" id="instagram-with-circle" xmlns="http://www.w3.org/2000/svg"><path fill="currentColor" d="M13.498 6.651a1.656 1.656 0 00-.95-.949 2.766 2.766 0 00-.928-.172c-.527-.024-.685-.03-2.02-.03s-1.493.006-2.02.03a2.766 2.766 0 00-.929.172 1.656 1.656 0 00-.949.95 2.766 2.766 0 00-.172.928c-.024.527-.03.685-.03 2.02s.006 1.493.03 2.02a2.766 2.766 0 00.172.929 1.656 1.656 0 00.95.949 2.766 2.766 0 00.928.172c.527.024.685.029 2.02.029s1.493-.005 2.02-.03a2.766 2.766 0 00.929-.171 1.656 1.656 0 00.949-.95 2.766 2.766 0 00.172-.928c.024-.527.029-.685.029-2.02s-.005-1.493-.03-2.02a2.766 2.766 0 00-.171-.929zM9.6 12.168A2.568 2.568 0 1112.168 9.6 2.568 2.568 0 019.6 12.168zm2.669-4.637a.6.6 0 11.6-.6.6.6 0 01-.6.6zM11.267 9.6A1.667 1.667 0 119.6 7.933 1.667 1.667 0 0111.267 9.6zM9.6 0a9.6 9.6 0 109.6 9.6A9.6 9.6 0 009.6 0zm4.97 11.661a3.67 3.67 0 01-.233 1.214 2.556 2.556 0 01-1.462 1.462 3.67 3.67 0 01-1.213.233c-.534.024-.704.03-2.062.03s-1.528-.006-2.062-.03a3.67 3.67 0 01-1.213-.233 2.556 2.556 0 01-1.462-1.462 3.67 3.67 0 01-.233-1.213c-.024-.534-.03-.704-.03-2.062s.006-1.528.03-2.062a3.67 3.67 0 01.232-1.213 2.556 2.556 0 011.463-1.463 3.67 3.67 0 011.213-.232c.534-.024.704-.03 2.062-.03s1.528.006 2.062.03a3.67 3.67 0 011.213.232 2.556 2.556 0 011.462 1.463 3.67 3.67 0 01.233 1.213c.024.534.03.704.03 2.062s-.006 1.528-.03 2.062z"/></svg><svg viewBox="0 0 227.096 227.096" id="right-arrow" xmlns="http://www.w3.org/2000/svg"><path fill="#010002" d="M152.835 39.285l-5.902 5.898 64.18 64.19H0v8.35h211.124l-64.191 64.179 5.902 5.909 74.261-74.261z"/></svg><svg viewBox="0 0 310 310" id="twitter" xmlns="http://www.w3.org/2000/svg"><path fill="currentColor" d="M302.973 57.388a117.512 117.512 0 01-14.993 5.463 66.276 66.276 0 0013.494-23.73 5 5 0 00-7.313-5.824 117.994 117.994 0 01-34.878 13.783c-12.381-12.098-29.197-18.983-46.581-18.983-36.695 0-66.549 29.853-66.549 66.547 0 2.89.183 5.764.545 8.598C101.163 99.244 58.83 76.863 29.76 41.204a5.001 5.001 0 00-8.196.642c-5.896 10.117-9.013 21.688-9.013 33.461 0 16.035 5.725 31.249 15.838 43.137a56.37 56.37 0 01-8.907-3.977 5 5 0 00-7.427 4.257c-.007.295-.007.59-.007.889 0 23.935 12.882 45.484 32.577 57.229a57.372 57.372 0 01-5.063-.735 4.998 4.998 0 00-5.699 6.437c7.29 22.76 26.059 39.501 48.749 44.605-18.819 11.787-40.34 17.961-62.932 17.961a120.4 120.4 0 01-14.095-.826 5 5 0 00-3.286 9.174c29.023 18.609 62.582 28.445 97.047 28.445 67.754 0 110.139-31.95 133.764-58.753 29.46-33.421 46.356-77.658 46.356-121.367 0-1.826-.028-3.67-.084-5.508 11.623-8.757 21.63-19.355 29.773-31.536a5 5 0 00-6.182-7.351z"/></svg></svg>